<svg width="257" height="27" viewBox="0 0 257 27" fill="none" xmlns="http://www.w3.org/2000/svg">
  <path d="M26.0133 6.16792C26.0133 2.76147 23.352 0 20.0691 0C16.7863 0 14.125 2.76147 14.125 6.16792C14.125 9.57437 16.7863 12.3358 20.0691 12.3358C23.352 12.3358 26.0133 9.57437 26.0133 6.16792Z" fill="#5000FE"/>
  <path d="M11.8883 0H0V12.3358H11.8883V0Z" fill="#5000FE"/>
  <path d="M11.8883 20.8162C11.8883 17.4098 9.227 14.6483 5.94414 14.6483C2.66128 14.6483 0 17.4098 0 20.8162C0 24.2227 2.66128 26.9841 5.94414 26.9841C9.227 26.9841 11.8883 24.2227 11.8883 20.8162Z" fill="#5000FE"/>
  <path d="M26.0133 14.6483H14.125V26.9841H26.0133V14.6483Z" fill="#5000FE"/>
  <path d="M48.9807 5.7426H41.3281V0.448822H62.1681V5.7426H54.5155V26.542H48.9807V5.7426Z" fill="#100033"/>
  <path d="M83.2162 5.55472V0.448822H64.25V10.8485H69.7454V5.55472H83.2162Z" fill="#100033"/>
  <path d="M69.7454 21.4362V15.9545H81.6022V10.8486H69.7454V15.881H64.25V26.5422H83.3973V21.4362H69.7454Z" fill="#100033"/>
  <path d="M85.0547 13.5694V13.4959C85.0547 6.07803 90.4478 0 98.1712 0C102.911 0 105.753 1.64205 108.083 4.02753L104.564 8.24294C102.627 6.41298 100.651 5.30196 98.1319 5.30196C93.8962 5.30196 90.8414 8.95371 90.8414 13.4306V13.5041C90.8414 17.9809 93.8253 21.7062 98.1319 21.7062C101.006 21.7062 102.769 20.5134 104.745 18.6508L108.264 22.3434C105.674 25.2109 102.801 27 97.9507 27C90.5501 27 85.0547 21.069 85.0547 13.5776V13.5694Z" fill="#100033"/>
  <path d="M110.523 0.448822H116.058V10.775H126.262V0.448822H131.796V26.542H126.262V16.0688H116.058V26.542H110.523V0.448822Z" fill="#100033"/>
  <path d="M134.992 22.7678L138.267 18.6994C140.535 20.6438 142.905 21.8691 145.786 21.8691C148.054 21.8691 149.423 20.9378 149.423 19.402V19.3284C149.423 17.8743 148.557 17.1227 144.353 16.0035C139.283 14.6555 136.008 13.2014 136.008 8.01378V7.94024C136.008 3.20196 139.677 0.0648804 144.818 0.0648804C148.487 0.0648804 151.62 1.25763 154.171 3.38985L151.289 7.71969C149.061 6.11031 146.865 5.1463 144.739 5.1463C142.613 5.1463 141.503 6.15112 141.503 7.42556V7.4991C141.503 9.21469 142.582 9.77839 146.936 10.9303C152.045 12.3109 154.919 14.2144 154.919 18.7729V18.8465C154.919 24.0341 151.108 26.9505 145.676 26.9505C141.865 26.9505 138.015 25.5699 134.992 22.7678Z" fill="#100033"/>
  <path d="M176.584 5.56293V0.448853H157.586V10.8649H163.089V5.56293H176.584Z" fill="#100033"/>
  <path d="M163.089 21.4604V15.9787H174.962V10.8646H163.089V15.9052H157.586V26.5744H176.757V21.4604H163.089Z" fill="#100033"/>
  <path d="M179.531 0.448516H191.042C194.246 0.448516 196.726 1.37982 198.379 3.09541C199.781 4.54957 200.537 6.60826 200.537 9.06727V9.14081C200.537 13.3562 198.34 16.0113 195.144 17.2449L201.292 26.5744H194.821L189.428 18.2089H185.074V26.5744H179.531V0.440338V0.448516ZM190.687 13.1356C193.388 13.1356 194.931 11.6407 194.931 9.44308V9.36953C194.931 6.90236 193.278 5.63609 190.577 5.63609H185.074V13.1356H190.687Z" fill="#100033"/>
  <path d="M200.512 0.448853H206.629L213.211 18.8546L219.793 0.448853H225.761L215.581 26.7626H210.692L200.512 0.448853Z" fill="#100033"/>
  <path d="M222.211 20.6033H228.037V26.5752H222.211V20.6033Z" fill="#100033"/>
  <path d="M232.141 20.9049V20.8314C232.141 16.5751 235.376 14.4837 240.022 14.4837C242.147 14.4837 243.659 14.8187 245.131 15.3088V14.8268C245.131 12.0247 243.478 10.5297 240.415 10.5297C238.289 10.5297 236.707 11.0117 234.983 11.7633L233.794 8.21778C235.92 7.24561 237.967 6.61655 240.99 6.61655C243.832 6.61655 245.958 7.40082 247.288 8.82231C248.69 10.2438 249.335 12.3352 249.335 14.9086V26.5908H245.092V24.1237C243.793 25.733 241.817 26.9993 238.904 26.9993C235.345 26.9993 232.141 24.8671 232.141 20.9131V20.9049ZM245.194 19.4834V18.1355C244.076 17.6862 242.604 17.3512 240.88 17.3512C238.077 17.3512 236.416 18.5848 236.416 20.6353V20.7088C236.416 22.6123 238.038 23.6989 240.124 23.6989C243.005 23.6989 245.194 21.9833 245.194 19.4834Z" fill="#100033"/>
  <path d="M252.609 6.8696H257.003V26.5825H252.609V6.8696Z" fill="#100033"/>
  <path d="M256.992 0H252.395V4.22359H256.992V0Z" fill="#5000FE"/>
</svg>
